<?xml version="1.0" standalone="no"?>
<!DOCTYPE svg PUBLIC "-//W3C//DTD SVG 20010904//EN"
 "http://www.w3.org/TR/2001/REC-SVG-20010904/DTD/svg10.dtd">
<svg version="1.0" xmlns="http://www.w3.org/2000/svg"
 width="410.000000pt" height="123.000000pt" viewBox="0 0 410.000000 123.000000"
 preserveAspectRatio="xMidYMid meet">

<g transform="translate(0.000000,123.000000) scale(0.100000,-0.100000)"
fill="#000000" stroke="none">
<path d="M3287 1154 c-3 -3 -3 -21 0 -40 5 -29 2 -35 -18 -43 -26 -10 -59 10
-59 36 0 18 -35 17 -50 -2 -14 -17 -6 -45 13 -45 8 0 21 -8 30 -18 23 -25 7
-46 -32 -40 -41 6 -58 -13 -43 -47 13 -28 37 -33 46 -10 8 21 33 19 46 -5 9
-17 6 -25 -15 -46 -29 -28 -31 -46 -10 -64 19 -16 45 -6 45 17 1 25 24 53 43
53 20 0 37 -30 37 -64 0 -28 17 -33 51 -16 23 13 25 38 3 47 -9 3 -20 15 -24
27 l-9 21 0 -22 c-1 -12 8 -28 20 -37 l21 -14 -20 -11 c-29 -16 -32 -14 -32
15 0 64 -51 86 -89 38 -11 -15 -18 -30 -15 -35 3 -5 -2 -9 -10 -9 -26 0 -27
18 -1 44 28 28 30 38 15 67 -13 23 -56 25 -68 2 -9 -14 -11 -14 -21 5 -7 12
-8 23 -4 23 15 3 38 6 59 8 46 3 36 63 -13 82 -21 8 -23 12 -13 24 16 19 30
19 30 0 0 -8 11 -22 24 -30 19 -13 28 -14 50 -4 25 12 31 28 27 72 -2 19 15
22 39 7 12 -8 12 -10 -3 -16 -22 -8 -22 -53 1 -70 25 -19 36 -17 66 11 27 25
46 26 46 1 0 -6 -15 -16 -32 -21 -28 -9 -33 -15 -36 -46 -3 -30 1 -37 23 -47
14 -7 35 -12 45 -12 24 0 26 -13 5 -30 -11 -9 -15 -9 -15 -1 0 12 -49 35 -58
27 -3 -3 7 -10 21 -15 14 -5 27 -16 30 -23 7 -21 42 5 42 33 0 16 -6 25 -20
27 -61 9 -66 12 -63 40 2 21 11 29 36 37 24 7 32 15 32 32 0 12 -8 26 -17 31
-13 8 -23 3 -44 -19 -25 -26 -30 -28 -48 -17 -25 16 -27 37 -4 53 15 11 15 15
4 29 -13 16 -52 22 -64 10z"/>
<path d="M1009 1123 c-1 -5 0 -18 1 -30 2 -28 -34 -32 -48 -6 -6 10 -16 14
-26 10 -22 -9 -20 -34 4 -42 31 -10 26 -38 -6 -32 -30 5 -43 -15 -24 -38 9
-11 16 -12 26 -4 23 19 37 0 20 -27 -20 -29 -20 -40 -1 -48 11 -4 19 3 25 20
12 31 44 29 48 -4 2 -14 10 -22 22 -22 29 0 34 20 11 41 -12 11 -21 17 -21 14
0 -3 -9 -1 -21 5 -14 8 -24 8 -33 1 -9 -8 -12 -5 -12 12 1 19 -4 22 -31 21
-18 -1 -33 2 -33 7 0 5 14 9 31 9 28 0 31 3 27 25 -3 15 -1 25 6 24 37 -4 46
2 46 33 0 17 3 28 7 24 4 -4 7 -19 8 -34 0 -19 6 -28 21 -30 17 -2 20 -8 16
-32 -3 -21 0 -30 9 -30 11 0 11 -2 1 -8 -9 -6 -5 -12 13 -22 22 -12 28 -12 35
0 10 16 2 41 -14 39 -43 -5 -51 31 -11 49 16 7 23 17 19 27 -8 20 -23 19 -46
-2 -25 -22 -49 -3 -28 22 12 14 11 18 -1 26 -17 11 -39 12 -40 2z m-56 -47 c4
-10 1 -13 -8 -9 -8 3 -12 9 -9 14 7 12 11 11 17 -5z m157 -5 c0 -5 -7 -12 -16
-15 -14 -5 -15 -4 -4 9 14 17 20 19 20 6z m10 -101 c0 -5 -2 -10 -4 -10 -3 0
-8 5 -11 10 -3 6 -1 10 4 10 6 0 11 -4 11 -10z m-150 -40 c0 -5 -4 -10 -10
-10 -5 0 -10 5 -10 10 0 6 5 10 10 10 6 0 10 -4 10 -10z m90 -10 c0 -5 -4 -10
-10 -10 -5 0 -10 5 -10 10 0 6 5 10 10 10 6 0 10 -4 10 -10z"/>
<path d="M1927 1094 c-3 -4 -3 -19 0 -35 7 -39 -20 -49 -51 -20 -21 20 -25 21
-39 6 -18 -18 -12 -46 8 -39 7 3 16 1 20 -5 3 -6 11 -11 16 -11 6 0 7 5 3 12
-5 7 -2 9 8 5 28 -10 51 16 46 51 -3 22 0 32 8 32 10 0 12 -9 8 -29 -5 -23 -2
-32 16 -41 12 -6 29 -9 37 -6 12 5 13 3 5 -7 -24 -29 17 -81 48 -62 5 3 10 -1
10 -10 0 -13 -5 -15 -17 -10 -10 4 -27 8 -38 9 -25 1 -32 -35 -11 -57 8 -8 12
-17 9 -21 -12 -12 -23 -6 -23 13 0 24 -25 45 -45 37 -9 -3 -18 -19 -21 -36 -7
-30 -18 -38 -29 -20 -3 6 -2 10 3 10 16 0 24 51 11 67 -12 14 -24 14 -61 -2
-13 -5 -18 -2 -18 9 0 9 6 13 14 10 8 -3 22 -2 31 3 11 7 6 9 -20 10 -30 1
-35 -2 -35 -21 0 -32 8 -36 38 -20 18 9 30 10 38 3 13 -11 8 -39 -9 -50 -16
-11 1 -39 22 -39 14 0 21 8 23 28 4 33 43 40 43 7 0 -13 8 -21 23 -23 28 -4
39 22 18 44 -21 20 -15 40 10 35 45 -9 59 -6 59 14 0 13 -7 20 -20 21 -40 2
-45 4 -45 23 0 10 9 25 21 32 13 9 18 20 14 32 -8 21 -45 23 -45 3 0 -24 -21
-30 -38 -12 -13 13 -14 20 -5 35 7 10 9 22 6 25 -8 8 -38 8 -46 0z m115 -59
c0 -5 -5 -11 -11 -13 -6 -2 -11 4 -11 13 0 9 5 15 11 13 6 -2 11 -8 11 -13z
m-172 -10 c14 -16 10 -18 -14 -9 -9 3 -16 10 -16 15 0 14 16 11 30 -6z"/>
<path d="M582 1025 c13 -19 26 -35 31 -35 4 0 -3 16 -15 35 -13 19 -26 35 -31
35 -4 0 3 -16 15 -35z"/>
<path d="M650 1025 c0 -14 2 -25 4 -25 2 0 6 11 8 25 3 14 1 25 -3 25 -5 0 -9
-11 -9 -25z"/>
<path d="M2592 1025 c0 -16 2 -22 5 -12 2 9 2 23 0 30 -3 6 -5 -1 -5 -18z"/>
<path d="M1010 1025 c-14 -17 -5 -35 18 -34 11 0 12 3 5 6 -7 2 -13 11 -13 18
0 7 6 16 13 18 7 4 8 6 1 6 -6 1 -17 -6 -24 -14z"/>
<path d="M708 1002 c-30 -18 -39 -39 -10 -23 29 16 58 40 47 40 -5 0 -22 -7
-37 -17z"/>
<path d="M3292 1008 c-7 -7 -12 -17 -12 -24 0 -18 28 -37 41 -28 9 5 6 10 -9
15 -24 9 -20 35 6 42 14 4 14 5 2 6 -9 0 -21 -4 -28 -11z"/>
<path d="M2545 1000 c3 -5 11 -10 16 -10 6 0 7 5 4 10 -3 6 -11 10 -16 10 -6
0 -7 -4 -4 -10z"/>
<path d="M2625 1000 c-3 -5 -1 -10 4 -10 6 0 11 5 11 10 0 6 -2 10 -4 10 -3 0
-8 -4 -11 -10z"/>
<path d="M1926 974 c-8 -20 1 -34 22 -34 13 0 13 2 -3 14 -18 13 -18 13 1 24
16 10 16 11 3 12 -9 0 -20 -7 -23 -16z"/>
<path d="M3805 977 c-2 -7 -5 -21 -7 -32 -5 -30 -40 -25 -56 7 -8 16 -18 25
-27 22 -23 -9 -25 -31 -4 -50 34 -31 18 -66 -21 -42 -17 11 -22 11 -30 -2 -18
-28 -11 -40 25 -40 40 0 48 -22 15 -40 -11 -6 -20 -17 -20 -26 0 -25 29 -28
48 -4 23 29 54 18 50 -19 -2 -21 2 -27 20 -29 24 -4 45 29 24 36 -17 5 -15 29
3 36 9 3 25 -4 36 -15 24 -24 49 -19 49 10 0 12 -9 21 -26 25 -36 9 -30 50 9
54 21 3 27 9 27 27 0 26 -26 41 -37 21 -5 -7 -15 -16 -23 -19 -12 -4 -12 -6 2
-6 9 -1 20 4 23 9 9 15 25 12 25 -5 0 -9 -9 -15 -25 -15 -26 0 -47 -32 -38
-56 2 -6 -8 -16 -22 -22 -24 -11 -36 -52 -15 -52 6 0 10 -4 10 -10 0 -5 -7
-10 -15 -10 -10 0 -15 10 -15 30 0 26 -5 31 -30 37 -17 3 -30 11 -29 17 3 28
-3 36 -31 36 -20 0 -30 5 -30 15 0 12 4 13 19 4 27 -17 51 -4 51 27 0 20 3 24
13 16 27 -21 64 11 58 51 0 4 6 7 14 7 8 0 15 -4 15 -10 0 -5 -4 -10 -10 -10
-5 0 -10 -10 -9 -22 0 -15 2 -18 6 -8 3 8 12 18 19 23 7 4 11 14 8 21 -7 18
-44 28 -49 13z m-71 -33 c9 -24 7 -28 -9 -14 -17 14 -20 30 -6 30 5 0 12 -7
15 -16z m165 -150 c3 -3 0 -8 -5 -13 -5 -4 -17 1 -27 11 -19 20 -18 20 5 13
12 -4 25 -9 27 -11z m-181 -14 c-13 -21 -28 -27 -28 -10 0 5 8 14 18 19 23 14
24 14 10 -9z"/>
<path d="M540 966 c0 -2 11 -6 25 -8 14 -3 25 -1 25 3 0 5 -11 9 -25 9 -14 0
-25 -2 -25 -4z"/>
<path d="M2515 960 c-3 -5 3 -10 14 -10 12 0 21 5 21 10 0 6 -6 10 -14 10 -8
0 -18 -4 -21 -10z"/>
<path d="M2653 963 c9 -2 23 -2 30 0 6 3 -1 5 -18 5 -16 0 -22 -2 -12 -5z"/>
<path d="M705 930 c27 -12 35 -12 35 0 0 6 -12 10 -27 9 -25 0 -26 -1 -8 -9z"/>
<path d="M2550 919 c0 -5 5 -7 10 -4 6 3 10 8 10 11 0 2 -4 4 -10 4 -5 0 -10
-5 -10 -11z"/>
<path d="M558 902 c-30 -18 -39 -39 -10 -23 29 16 58 40 47 40 -5 0 -22 -7
-37 -17z"/>
<path d="M2590 896 c0 -22 3 -27 11 -19 8 8 8 16 0 30 -9 16 -10 14 -11 -11z"/>
<path d="M679 878 c11 -18 25 -34 31 -36 7 -3 1 12 -12 32 -13 20 -27 36 -31
36 -5 0 0 -15 12 -32z"/>
<path d="M618 875 c-3 -14 -2 -25 2 -25 4 0 10 11 12 25 3 14 2 25 -2 25 -4 0
-10 -11 -12 -25z"/>
<path d="M3780 845 c0 -17 5 -25 18 -24 10 0 12 3 5 6 -7 2 -13 11 -13 18 0 7
6 16 13 18 7 3 5 6 -5 6 -13 1 -18 -7 -18 -24z"/>
<path d="M1717 810 c-30 -24 -40 -60 -27 -94 8 -23 6 -28 -19 -41 -16 -8 -34
-28 -40 -46 -14 -41 -15 -153 -1 -144 6 3 10 37 10 76 0 96 16 111 108 105 53
-4 58 -3 23 3 -51 9 -71 31 -71 77 0 23 8 39 26 53 35 27 57 26 90 -3 22 -18
28 -32 27 -61 -1 -26 2 -34 8 -24 17 26 9 61 -20 90 -35 35 -77 38 -114 9z"/>
<path d="M2323 804 c-23 -23 -25 -31 -20 -75 5 -36 3 -49 -7 -49 -7 0 -22 -10
-34 -23 -19 -20 -22 -33 -20 -103 l2 -79 3 75 c3 58 8 80 24 96 23 25 56 37
65 23 3 -5 24 -8 47 -7 41 1 41 1 7 5 -74 9 -104 79 -55 128 28 29 45 31 85
10 32 -17 45 -45 36 -82 -5 -16 -3 -22 4 -18 5 3 10 17 10 30 0 83 -90 125
-147 69z"/>
<path d="M2807 814 c-4 -4 -7 -18 -7 -31 0 -20 5 -23 40 -23 36 0 40 -2 40
-26 0 -19 -7 -28 -31 -36 -39 -13 -49 -41 -49 -132 0 -59 4 -78 21 -100 19
-24 27 -26 92 -26 40 0 77 4 83 8 24 16 34 54 34 131 0 68 -3 84 -20 101 -11
11 -27 20 -35 20 -21 0 -20 56 1 64 9 3 14 15 12 28 -3 22 -8 23 -88 26 -47 1
-89 0 -93 -4z m171 -22 c2 -7 -5 -16 -17 -19 -16 -4 -21 -13 -21 -40 0 -29 5
-36 30 -45 42 -14 50 -35 50 -122 0 -100 -14 -116 -101 -116 -96 0 -99 3 -99
121 l0 100 35 15 c31 12 35 19 35 49 0 34 -1 35 -40 35 -38 0 -52 14 -33 34
13 13 156 2 161 -12z"/>
<path d="M2893 621 c-3 -11 -13 -21 -24 -24 -25 -7 -24 -37 1 -44 11 -3 20
-12 20 -19 0 -8 10 -14 25 -14 14 0 25 4 25 9 0 5 -9 7 -20 4 -14 -4 -20 0
-20 11 0 9 -7 16 -15 16 -8 0 -15 7 -15 15 0 8 7 15 15 15 8 0 15 9 15 20 0
11 7 20 15 20 8 0 15 -8 15 -19 0 -11 9 -21 23 -25 22 -6 22 -6 2 -22 -20 -16
-20 -16 0 -12 27 5 32 38 7 45 -11 3 -22 13 -25 24 -3 10 -13 19 -22 19 -9 0
-19 -9 -22 -19z"/>
<path d="M2658 793 c6 -2 18 -2 25 0 6 3 1 5 -13 5 -14 0 -19 -2 -12 -5z"/>
<path d="M2725 790 c3 -5 13 -10 21 -10 8 0 14 5 14 10 0 6 -9 10 -21 10 -11
0 -17 -4 -14 -10z"/>
<path d="M1220 761 c-25 -15 -63 -34 -85 -41 -22 -7 -34 -15 -26 -18 8 -2 50
14 93 37 90 46 88 46 88 28 0 -7 -15 -21 -32 -32 l-33 -19 25 -7 c14 -4 53 -7
88 -8 34 -1 62 -5 62 -10 0 -16 -20 -23 -33 -12 -14 11 -116 9 -135 -3 -7 -4
-15 -1 -18 8 -9 23 -27 20 -82 -13 -26 -15 -65 -34 -85 -40 -20 -7 -37 -16
-37 -21 0 -11 75 19 132 53 54 31 58 32 58 13 0 -8 -13 -23 -29 -32 -17 -10
-28 -21 -25 -26 3 -4 41 -8 85 -8 60 0 80 -3 77 -12 -3 -8 -30 -15 -64 -19
l-59 -6 78 -1 c61 -2 77 -5 77 -17 0 -12 -16 -15 -77 -17 l-78 -1 63 -6 c34
-3 62 -10 62 -16 0 -5 -28 -12 -62 -15 -62 -6 -62 -6 -18 -10 25 -3 44 -9 43
-15 -4 -13 -165 -18 -220 -7 -24 5 -43 6 -43 2 0 -15 136 -31 204 -24 55 6 70
11 73 26 6 22 11 22 34 2 14 -12 22 -13 38 -4 12 6 21 15 21 20 0 6 0 13 1 18
0 4 11 13 24 19 28 15 40 46 27 69 -13 24 8 64 35 64 29 0 41 37 19 58 -20 21
-49 6 -54 -27 -4 -27 -22 -28 -22 -1 0 12 -7 20 -16 20 -13 0 -14 3 -4 15 17
20 5 45 -21 45 -18 0 -21 -5 -17 -27 4 -27 3 -28 -40 -24 -43 3 -43 3 -23 22
22 21 18 49 -8 49 -9 0 -36 -13 -61 -29z m162 -16 c0 -5 -5 -11 -11 -13 -6 -2
-11 4 -11 13 0 9 5 15 11 13 6 -2 11 -8 11 -13z m101 -61 c-6 -16 -29 -19 -38
-4 -4 6 -1 17 5 26 15 18 42 0 33 -22z m-182 -37 c0 -7 4 -2 9 11 18 44 77 11
65 -36 -5 -21 -4 -23 8 -14 18 15 37 -3 37 -35 0 -23 -33 -48 -50 -38 -5 3 -8
-7 -7 -22 2 -22 -3 -29 -21 -31 -21 -3 -23 -1 -17 20 4 13 13 30 20 38 14 17
9 40 -10 40 -7 0 -15 9 -18 20 -4 16 -14 20 -51 20 -52 0 -62 18 -24 44 23 16
57 6 59 -17z m129 -2 c0 -8 -9 -15 -20 -15 -11 0 -20 7 -20 15 0 8 9 15 20 15
11 0 20 -7 20 -15z m-220 -5 c0 -5 -7 -10 -16 -10 -8 0 -12 5 -9 10 3 6 10 10
16 10 5 0 9 -4 9 -10z"/>
<path d="M2730 761 c0 -5 9 -7 20 -4 11 3 20 7 20 9 0 2 -9 4 -20 4 -11 0 -20
-4 -20 -9z"/>
<path d="M3396 719 c-72 -37 -83 -40 -129 -34 -37 5 -52 4 -58 -6 -12 -20 -11
-131 2 -149 8 -11 9 -4 5 27 -4 24 -4 60 0 80 l6 38 52 -3 c46 -3 64 2 135 37
76 39 101 44 101 21 0 -5 -13 -17 -30 -27 -16 -9 -30 -21 -30 -25 0 -4 36 -8
80 -8 73 0 80 -2 80 -20 0 -18 -7 -20 -62 -22 l-63 -2 78 -5 c42 -3 77 -10 77
-16 0 -5 -35 -12 -77 -15 l-78 -6 64 -4 c87 -7 97 -30 12 -30 -33 0 -63 -4
-66 -10 -4 -6 12 -10 39 -10 34 0 46 -4 46 -15 0 -13 -22 -15 -134 -15 -73 0
-147 -3 -164 -6 l-30 -6 -10 63 -11 64 3 -67 c1 -37 4 -70 8 -73 3 -3 17 -1
32 5 15 5 90 10 168 10 131 0 140 1 145 20 3 10 14 22 24 25 10 4 19 15 19 25
0 10 7 20 15 24 18 7 20 32 3 43 -7 4 -18 17 -24 28 -9 16 -23 21 -80 23 l-69
3 25 19 c20 16 23 22 14 37 -17 28 -33 25 -118 -18z"/>
<path d="M2660 740 c0 -5 7 -7 15 -4 8 4 15 8 15 10 0 2 -7 4 -15 4 -8 0 -15
-4 -15 -10z"/>
<path d="M540 689 c-58 -23 -63 -23 -123 -13 -47 8 -67 -8 -67 -50 0 -46 36
-77 97 -83 26 -3 55 -12 65 -20 38 -34 201 -33 254 2 13 8 37 15 55 15 78 0
137 65 105 115 -19 29 -46 35 -82 20 -24 -10 -36 -9 -74 8 -69 30 -163 32
-230 6z m171 0 c98 -31 105 -41 75 -114 -22 -52 -62 -68 -163 -63 -78 3 -87 5
-108 31 -28 31 -43 93 -27 109 16 16 114 47 153 47 20 1 51 -4 70 -10z m-263
-36 c11 -10 23 -37 26 -62 l7 -43 -38 7 c-45 8 -83 40 -83 70 0 44 50 60 88
28z m460 5 c18 -18 14 -56 -7 -77 -19 -19 -87 -39 -97 -28 -10 10 9 80 27 98
22 22 59 25 77 7z"/>
<path d="M608 613 c17 -2 47 -2 65 0 17 2 3 4 -33 4 -36 0 -50 -2 -32 -4z"/>
<path d="M608 563 c17 -2 47 -2 65 0 17 2 3 4 -33 4 -36 0 -50 -2 -32 -4z"/>
<path d="M1825 680 c3 -5 14 -10 24 -10 32 0 55 -37 59 -98 5 -85 -6 -95 -114
-103 l-89 -6 81 -1 c69 -2 85 1 108 19 22 18 26 28 26 75 0 65 -18 105 -55
122 -32 15 -48 15 -40 2z"/>
<path d="M2434 681 c4 -6 16 -11 26 -11 34 0 60 -47 60 -110 0 -75 -11 -83
-119 -91 l-86 -7 93 2 c113 1 122 9 122 102 0 51 -4 68 -22 88 -24 26 -88 50
-74 27z"/>
<path d="M2002 627 l-22 -23 27 -25 c16 -13 22 -17 16 -9 -23 26 -14 30 62 30
75 0 86 -5 63 -28 -8 -8 -8 -12 -1 -12 6 0 18 11 26 24 15 22 14 25 -9 47 -24
22 -35 14 -12 -9 9 -9 -5 -12 -66 -12 -69 0 -77 2 -66 15 21 25 5 27 -18 2z"/>
<path d="M1443 544 c-3 -8 -1 -20 5 -26 16 -16 42 -2 42 22 0 24 -38 28 -47 4z
m35 -5 c-2 -6 -8 -10 -13 -10 -5 0 -11 4 -13 10 -2 6 4 11 13 11 9 0 15 -5 13
-11z"/>
<path d="M289 513 c-1 -5 -2 -19 -3 -33 -1 -33 -45 -42 -53 -11 -6 25 -25 27
-44 5 -11 -13 -8 -19 17 -39 33 -26 28 -38 -16 -37 -31 1 -39 -18 -21 -47 7
-11 13 -11 32 4 l24 17 -27 -6 c-22 -5 -28 -3 -28 9 0 9 4 14 10 10 5 -3 21
-3 35 1 27 7 33 31 13 53 -11 11 -9 12 7 3 33 -16 65 2 65 37 0 24 3 29 17 24
11 -4 12 -8 5 -11 -19 -6 -14 -46 7 -59 11 -7 21 -25 23 -40 2 -21 11 -30 33
-37 38 -13 38 -13 30 -25 -4 -8 -11 -6 -21 4 -9 8 -23 15 -32 15 -14 -1 -14
-3 3 -12 11 -6 23 -16 27 -22 11 -17 42 19 34 39 -3 9 -10 14 -16 10 -14 -9
-50 13 -50 31 0 9 14 21 30 27 33 13 38 28 15 47 -13 11 -19 9 -36 -8 -11 -12
-24 -22 -30 -22 -15 0 -24 33 -11 38 7 2 12 10 12 17 0 19 -48 35 -51 18z
m-73 -60 c-10 -10 -19 5 -10 18 6 11 8 11 12 0 2 -7 1 -15 -2 -18z m169 -19
c-38 -20 -45 -17 -15 5 13 11 28 17 33 14 5 -3 -4 -11 -18 -19z"/>
<path d="M3826 466 c-3 -13 -9 -32 -12 -43 -5 -12 -4 -15 3 -8 15 14 34 75 24
75 -5 0 -12 -11 -15 -24z"/>
<path d="M3750 454 c0 -5 7 -19 15 -30 8 -10 15 -14 15 -8 0 5 -7 19 -15 30
-8 10 -15 14 -15 8z"/>
<path d="M735 416 c-19 -14 -19 -15 -2 -33 21 -25 22 -39 0 -51 -20 -12 -63 5
-63 25 0 19 -38 16 -48 -4 -12 -23 -5 -43 16 -43 26 -1 52 -25 52 -48 0 -23
-27 -42 -60 -42 -28 0 -36 -27 -15 -50 18 -20 18 -20 37 0 10 11 25 20 33 20
8 0 15 4 15 10 0 12 -52 -7 -62 -23 -6 -9 -11 -8 -18 3 -16 24 -12 30 18 30
69 0 86 71 25 100 -32 15 -42 33 -24 45 5 3 21 -6 35 -20 28 -28 43 -30 69
-11 22 17 22 55 1 63 -15 6 -15 8 2 20 26 19 37 16 31 -8 -14 -55 45 -99 84
-63 11 9 19 24 19 31 0 19 24 11 28 -9 2 -9 -6 -19 -17 -23 -30 -9 -44 -40
-30 -66 8 -17 18 -20 45 -17 30 4 34 1 34 -19 0 -26 -15 -31 -24 -8 -8 22 -53
19 -66 -4 -15 -28 -13 -36 17 -71 21 -26 24 -33 12 -41 -20 -13 -32 -11 -26 4
3 8 -5 26 -17 41 -17 23 -26 26 -49 21 -26 -7 -45 -42 -39 -72 4 -18 -23 -16
-38 2 -10 12 -10 15 3 15 16 0 27 21 26 48 0 10 -5 5 -11 -10 -5 -16 -16 -28
-24 -28 -8 0 -14 -6 -14 -13 0 -20 22 -37 47 -37 18 0 23 6 23 28 0 32 9 46
32 55 20 7 48 -22 48 -51 0 -22 15 -27 44 -16 23 9 19 34 -10 65 -22 23 -24
30 -15 48 14 25 24 26 45 6 20 -20 33 -19 46 6 19 34 5 51 -34 44 -28 -6 -36
-3 -46 14 -10 19 -7 24 25 42 39 23 42 31 19 53 -21 21 -44 20 -44 -2 0 -26
-36 -45 -61 -32 -16 9 -20 19 -17 48 2 31 0 37 -17 40 -11 1 -29 -4 -40 -12z"/>
<path d="M290 405 c-16 -19 -6 -45 17 -45 17 1 16 2 -1 12 -18 10 -18 12 -2
23 9 7 13 16 8 19 -5 3 -15 -1 -22 -9z"/>
<path d="M3675 403 c14 -15 75 -34 75 -24 0 5 -11 12 -24 15 -13 3 -32 9 -43
12 -12 5 -15 4 -8 -3z"/>
<path d="M3854 395 c-10 -8 -14 -15 -8 -15 5 0 19 7 30 15 10 8 14 15 8 15 -5
0 -19 -7 -30 -15z"/>
<path d="M3165 370 c-4 -6 -1 -18 6 -26 10 -12 9 -18 -3 -30 -14 -14 -18 -14
-36 6 -12 13 -27 20 -36 17 -21 -8 -20 -36 2 -44 9 -3 23 -10 29 -16 19 -14
-3 -47 -32 -47 -18 0 -25 -5 -25 -20 0 -22 28 -39 39 -23 3 5 15 13 25 16 10
4 16 10 13 14 -4 3 -17 -1 -31 -10 -13 -9 -26 -13 -30 -10 -13 13 -5 22 20 25
37 4 53 31 36 59 -11 18 -11 20 0 16 35 -12 63 34 36 61 -9 9 -8 12 5 12 12 0
17 -8 17 -26 0 -19 7 -28 30 -37 21 -8 30 -18 30 -34 0 -20 5 -23 35 -23 34 0
46 -12 25 -25 -5 -3 -10 -1 -10 4 0 6 -11 11 -24 11 -27 0 -40 -25 -30 -56 5
-18 5 -18 -9 -1 -22 27 -56 13 -64 -24 -5 -28 -13 -35 -26 -23 -3 4 0 13 8 21
26 25 16 36 -9 12 -18 -17 -22 -27 -14 -36 19 -23 46 -15 50 14 4 35 38 38 53
6 11 -26 43 -31 51 -9 3 8 -4 24 -15 35 -12 12 -21 26 -21 31 0 17 31 24 40
10 13 -21 42 -3 38 22 -2 18 -10 23 -32 23 -38 0 -45 21 -12 36 30 14 32 22
10 44 -16 15 -18 15 -38 -10 -28 -35 -61 -25 -52 16 5 26 3 29 -19 29 -13 0
-27 -5 -30 -10z m135 -40 c0 -5 -9 -14 -20 -20 -19 -10 -20 -10 -8 9 13 22 28
28 28 11z m-187 -28 c-18 -5 -27 3 -18 17 4 7 10 7 20 -2 11 -10 11 -13 -2
-15z m171 -153 c-8 -14 -24 -10 -24 6 0 9 6 12 15 9 8 -4 12 -10 9 -15z"/>
<path d="M234 355 c4 -12 -1 -26 -15 -41 -18 -19 -20 -26 -9 -39 18 -22 38
-19 42 6 4 31 35 49 48 29 5 -8 10 -25 10 -37 0 -24 7 -27 34 -17 22 8 20 30
-4 54 -11 11 -20 15 -20 10 0 -6 -8 -5 -20 2 -16 10 -24 10 -40 0 -19 -11 -20
-11 -14 12 3 14 1 27 -7 32 -9 5 -10 2 -5 -11z m6 -65 c0 -13 -5 -18 -15 -14
-12 5 -13 10 -4 20 15 19 19 18 19 -6z m110 -10 c0 -4 -7 -10 -15 -14 -10 -4
-15 1 -15 14 0 13 5 18 15 14 8 -4 15 -10 15 -14z"/>
<path d="M1505 339 c-4 -6 -4 -13 -1 -16 3 -4 6 -1 6 6 0 7 5 9 12 5 7 -4 8
-3 4 4 -9 15 -13 15 -21 1z"/>
<path d="M1545 339 c-4 -5 -4 -13 -1 -16 3 -4 6 0 6 8 0 11 2 11 10 -1 6 -9
10 -10 10 -3 0 17 -17 25 -25 12z"/>
<path d="M1580 335 c0 -8 2 -15 4 -15 2 0 6 7 10 15 3 8 1 15 -4 15 -6 0 -10
-7 -10 -15z"/>
<path d="M1656 341 c-4 -7 -5 -15 -2 -18 9 -9 19 4 14 18 -4 11 -6 11 -12 0z"/>
<path d="M1690 336 c0 -7 7 -13 15 -13 8 0 15 4 15 8 0 4 -7 9 -15 13 -9 3
-15 0 -15 -8z"/>
<path d="M1736 335 c4 -8 8 -15 10 -15 2 0 4 7 4 15 0 8 -4 15 -10 15 -5 0 -7
-7 -4 -15z"/>
<path d="M1791 333 c0 -12 2 -14 6 -4 5 11 7 11 15 0 8 -12 9 -12 6 0 -6 22
-28 25 -27 4z"/>
<path d="M1831 338 c-1 -10 6 -18 14 -18 8 0 15 5 15 11 0 5 -4 8 -9 5 -5 -4
-12 0 -14 6 -3 8 -6 6 -6 -4z"/>
<path d="M1940 335 c0 -8 2 -15 4 -15 2 0 6 7 10 15 3 8 1 15 -4 15 -6 0 -10
-7 -10 -15z"/>
<path d="M2000 335 c0 -8 2 -15 4 -15 2 0 6 7 10 15 3 8 1 15 -4 15 -6 0 -10
-7 -10 -15z"/>
<path d="M2045 339 c-4 -5 -4 -13 -1 -16 3 -4 6 0 6 8 0 11 2 11 10 -1 6 -9
10 -10 10 -3 0 17 -17 25 -25 12z"/>
<path d="M2141 333 c0 -11 3 -13 6 -5 2 6 10 9 15 6 7 -4 8 -2 4 4 -11 18 -26
14 -25 -5z"/>
<path d="M2243 335 c0 -8 4 -15 9 -15 4 0 8 4 8 9 0 6 -4 12 -8 15 -5 3 -9 -1
-9 -9z"/>
<path d="M2320 336 c0 -9 5 -16 10 -16 6 0 10 4 10 9 0 6 -4 13 -10 16 -5 3
-10 -1 -10 -9z"/>
<path d="M2360 335 c0 -8 2 -15 4 -15 2 0 6 7 10 15 3 8 1 15 -4 15 -6 0 -10
-7 -10 -15z"/>
<path d="M2395 339 c-4 -6 -5 -12 -2 -15 2 -3 7 2 10 11 7 17 1 20 -8 4z"/>
<path d="M2435 339 c-4 -6 -5 -12 -2 -15 2 -3 7 2 10 11 7 17 1 20 -8 4z"/>
<path d="M2530 346 c0 -2 7 -7 16 -10 8 -3 12 -2 9 4 -6 10 -25 14 -25 6z"/>
<path d="M2570 335 c0 -8 7 -15 16 -15 14 0 14 3 4 15 -7 8 -14 15 -16 15 -2
0 -4 -7 -4 -15z"/>
<path d="M3875 335 c17 -8 37 -14 45 -14 8 0 2 7 -15 14 -16 8 -37 14 -45 14
-8 0 -1 -7 15 -14z"/>
<path d="M1620 330 c0 -5 5 -10 10 -10 6 0 10 5 10 10 0 6 -4 10 -10 10 -5 0
-10 -4 -10 -10z"/>
<path d="M2085 330 c3 -5 8 -10 11 -10 2 0 4 5 4 10 0 6 -5 10 -11 10 -5 0 -7
-4 -4 -10z"/>
<path d="M3720 330 c-24 -15 -7 -19 20 -5 15 8 19 14 10 14 -8 1 -22 -3 -30
-9z"/>
<path d="M3770 294 c-6 -16 -13 -35 -15 -41 -2 -7 -1 -13 4 -13 9 0 33 72 26
78 -2 3 -9 -8 -15 -24z"/>
<path d="M3820 314 c0 -5 7 -19 15 -30 8 -10 15 -14 15 -8 0 5 -7 19 -15 30
-8 10 -15 14 -15 8z"/>
<path d="M1342 290 c0 -14 4 -36 8 -50 8 -24 8 -24 8 5 0 17 -3 39 -8 50 -8
18 -9 18 -8 -5z"/>
<path d="M754 266 c-7 -30 1 -46 24 -46 16 1 16 1 0 11 -10 5 -18 16 -18 24 0
8 8 19 18 24 16 10 16 10 0 11 -10 0 -20 -10 -24 -24z"/>
<path d="M3187 273 c-4 -3 -7 -15 -7 -25 0 -12 7 -18 23 -17 16 1 18 2 5 6
-21 5 -24 29 -5 36 6 3 7 6 1 6 -6 1 -14 -2 -17 -6z"/>
<path d="M1402 240 c-7 -11 -8 -20 -2 -20 5 0 14 9 20 20 6 11 7 20 3 20 -5 0
-14 -9 -21 -20z"/>
<path d="M2201 244 c0 -11 3 -14 6 -6 3 7 2 16 -1 19 -3 4 -6 -2 -5 -13z"/>
<path d="M2155 230 c10 -11 20 -18 23 -15 7 6 -18 35 -31 35 -5 0 -2 -9 8 -20z"/>
<path d="M2246 234 c-5 -14 -4 -15 9 -4 17 14 19 20 6 20 -5 0 -12 -7 -15 -16z"/>
<path d="M1280 234 c0 -8 32 -33 43 -34 5 0 5 4 2 10 -8 13 -45 33 -45 24z"/>
<path d="M1465 202 c-16 -2 -34 -8 -40 -14 -7 -6 3 -7 30 -2 59 10 66 23 10
16z"/>
<path d="M2255 190 c-3 -5 1 -10 9 -10 9 0 16 5 16 10 0 6 -4 10 -9 10 -6 0
-13 -4 -16 -10z"/>
<path d="M2148 183 c7 -3 16 -2 19 1 4 3 -2 6 -13 5 -11 0 -14 -3 -6 -6z"/>
<path d="M1263 163 c-13 -2 -23 -8 -23 -13 0 -4 16 -4 36 0 63 15 52 26 -13
13z"/>
<path d="M2160 145 c-7 -9 -11 -18 -8 -20 3 -3 11 1 18 10 7 9 11 18 8 20 -3
3 -11 -1 -18 -10z"/>
<path d="M2240 156 c0 -2 8 -10 18 -17 15 -13 16 -12 3 4 -13 16 -21 21 -21
13z"/>
<path d="M1420 135 c7 -8 17 -15 22 -15 6 0 5 7 -2 15 -7 8 -17 15 -22 15 -6
0 -5 -7 2 -15z"/>
<path d="M1322 119 c-7 -11 -11 -23 -9 -25 7 -7 29 24 25 36 -2 6 -9 1 -16
-11z"/>
<path d="M2200 130 c0 -5 5 -10 10 -10 6 0 10 5 10 10 0 6 -4 10 -10 10 -5 0
-10 -4 -10 -10z"/>
<path d="M1376 100 c10 -51 26 -74 18 -25 -4 22 -10 44 -15 50 -6 5 -7 -5 -3
-25z"/>
</g>
</svg>
